<svg id="Layer_1" height="40" viewBox="0 0 64 64" width="40" xmlns="http://www.w3.org/2000/svg">
    <g>
        <g>
            <g>
                <path
                    d="m32.001 64c-7.605 0-13.564-14.057-13.564-32 0-17.944 5.959-32 13.564-32s13.563 14.056 13.563 32c-.001 17.943-5.958 32-13.563 32zm0-62c-6.268 0-11.564 13.738-11.564 30s5.297 30 11.564 30 11.563-13.738 11.563-30-5.295-30-11.563-30z"
                    fill="rgb(0,0,0)" />
            </g>
            <g>
                <path
                    d="m13.597 52.351c-4.35 0-7.436-1.295-8.922-3.746-3.945-6.508 4.965-18.9 20.287-28.211 9.01-5.476 18.521-8.744 25.443-8.744 4.35 0 7.434 1.295 8.92 3.745 3.947 6.509-4.965 18.9-20.285 28.212-9.01 5.475-18.521 8.744-25.443 8.744zm36.808-38.702c-6.572 0-15.695 3.16-24.404 8.453-13.887 8.438-22.869 20.1-19.615 25.465 1.395 2.301 4.691 2.783 7.211 2.783 6.57 0 15.693-3.16 24.404-8.453 13.885-8.438 22.867-20.101 19.613-25.466-1.394-2.299-4.689-2.782-7.209-2.782z"
                    fill="rgb(0,0,0)" />
            </g>
            <g>
                <path
                    d="m50.349 51.946c-6.865 0-16.26-3.062-25.131-8.188-15.522-8.972-24.703-21.164-20.901-27.758 1.49-2.582 4.717-3.946 9.336-3.946 6.865 0 16.26 3.061 25.129 8.188 15.523 8.972 24.703 21.165 20.9 27.758-1.488 2.581-4.716 3.946-9.333 3.946zm-36.696-37.892c-2.693 0-6.199.511-7.604 2.945-3.135 5.436 6.102 16.896 20.168 25.027 8.58 4.959 17.602 7.92 24.131 7.92 2.693 0 6.197-.512 7.602-2.946 3.135-5.436-6.102-16.896-20.168-25.027-8.58-4.959-17.599-7.919-24.129-7.919z"
                    fill="rgb(0,0,0)" />
            </g>
        </g>
        <g>
            <path
                d="m32.001 37.269c-2.902 0-5.264-2.363-5.264-5.269s2.361-5.269 5.264-5.269 5.264 2.363 5.264 5.269-2.362 5.269-5.264 5.269zm0-8.538c-1.801 0-3.264 1.466-3.264 3.269 0 1.802 1.463 3.269 3.264 3.269 1.799 0 3.264-1.467 3.264-3.269 0-1.803-1.465-3.269-3.264-3.269z"
                fill="rgb(0,0,0)" />
        </g>
    </g>
</svg>