<svg id="Layer_1" enable-background="new 0 0 74 74" viewBox="0 0 74 74" xmlns="http://www.w3.org/2000/svg">
    <g>
        <path
            d="m68.1 44.02c-2.79-1.21-4.6-3.97-4.6-7.03 0-3.03 1.8-5.79 4.6-7.02.67-.29 1.04-1.08.85-1.8-.71-2.6-1.75-5.12-3.11-7.51-.39-.68-1.22-.95-1.98-.66-2.81 1.07-6 .39-8.13-1.73-2.13-2.13-2.81-5.32-1.74-8.13.3-.76.02-1.59-.66-1.99-2.41-1.35-4.94-2.39-7.51-3.09-.73-.19-1.51.18-1.8.85-1.22 2.78-3.98 4.59-7.01 4.59-3.06 0-5.81-1.8-7.03-4.6-.31-.68-1.08-1.02-1.82-.84-2.56.7-5.09 1.74-7.5 3.09-.68.39-.95 1.23-.66 1.98 1.07 2.81.38 6.01-1.74 8.14-2.13 2.13-5.31 2.8-8.13 1.74-.76-.31-1.58-.03-1.98.65-1.36 2.39-2.4 4.91-3.11 7.51-.2.72.18 1.52.85 1.8 2.79 1.23 4.61 3.99 4.61 7.02 0 3.06-1.81 5.82-4.61 7.03-.67.3-1.04 1.09-.85 1.81.7 2.58 1.75 5.11 3.11 7.53.38.67 1.22.93 1.98.63 2.8-1.06 5.99-.37 8.11 1.74 2.14 2.14 2.82 5.32 1.76 8.13-.3.76-.02 1.59.66 1.99 2.41 1.35 4.94 2.38 7.51 3.09.74.19 1.51-.17 1.82-.86 1.21-2.78 3.96-4.58 7.02-4.58 3.03 0 5.79 1.8 7.01 4.58.24.56.79.91 1.4.91.13 0 .28-.02.41-.05 2.56-.71 5.09-1.74 7.51-3.1.67-.38.94-1.22.65-1.97-1.06-2.81-.37-6 1.76-8.14 2.12-2.13 5.3-2.8 8.11-1.74.76.3 1.59.04 1.98-.64 1.36-2.41 2.41-4.94 3.11-7.52.19-.72-.18-1.52-.85-1.81zm-.1 1.55c-.69 2.5-1.7 4.95-3.02 7.29-.16.29-.51.31-.77.21-3.17-1.2-6.77-.43-9.16 1.96-2.41 2.41-3.19 6.01-1.98 9.19.12.3.02.62-.23.76-2.34 1.32-4.79 2.32-7.27 3-.24.06-.54-.02-.65-.3-1.39-3.14-4.49-5.17-7.91-5.17-3.45 0-6.55 2.03-7.91 5.16-.12.25-.4.37-.67.31-2.49-.68-4.94-1.68-7.27-2.99-.26-.15-.35-.47-.23-.78 1.2-3.17.42-6.77-1.99-9.18-1.64-1.64-3.85-2.52-6.1-2.52-1.03 0-2.07.19-3.06.56-.26.1-.6.08-.77-.21-1.32-2.34-2.33-4.79-3.01-7.29-.07-.26.06-.55.29-.65 3.15-1.37 5.2-4.48 5.2-7.93 0-3.42-2.04-6.52-5.2-7.91-.23-.1-.35-.39-.29-.65.68-2.51 1.69-4.96 3.01-7.27.14-.26.46-.34.77-.23 3.18 1.2 6.78.43 9.18-1.97 2.4-2.39 3.17-6 1.96-9.18-.12-.3-.02-.62.23-.77 2.34-1.31 4.79-2.31 7.27-2.99.28-.08.56.06.67.29 1.37 3.15 4.47 5.18 7.92 5.18 3.42 0 6.52-2.03 7.91-5.18.1-.23.38-.35.65-.29 2.48.68 4.93 1.68 7.27 2.99.25.15.34.47.23.78-1.21 3.17-.44 6.78 1.96 9.17 2.4 2.4 6 3.17 9.18 1.97.31-.12.63-.03.77.23 1.32 2.31 2.33 4.76 3.02 7.27.06.25-.07.55-.3.65-3.15 1.39-5.19 4.49-5.19 7.91 0 3.45 2.04 6.56 5.19 7.93.23.1.36.4.3.65z" />
        <path
            d="m67.71 44.92c-3.15-1.37-5.19-4.48-5.19-7.93 0-3.42 2.04-6.52 5.19-7.91.23-.1.35-.4.3-.65-.69-2.51-1.7-4.96-3.02-7.27-.14-.26-.46-.34-.77-.23-3.18 1.2-6.78.43-9.18-1.97-2.4-2.39-3.17-6-1.96-9.17.12-.31.02-.63-.23-.78-2.34-1.31-4.79-2.31-7.27-2.99-.27-.07-.55.06-.65.29-1.39 3.15-4.49 5.18-7.91 5.18-3.45 0-6.55-2.03-7.92-5.18-.11-.23-.39-.36-.67-.29-2.48.68-4.93 1.68-7.27 2.99-.25.15-.34.47-.23.77 1.21 3.18.44 6.79-1.96 9.18-2.4 2.4-6 3.17-9.18 1.97-.3-.12-.63-.03-.77.23-1.32 2.31-2.33 4.76-3.01 7.27-.07.26.06.55.29.65 3.16 1.39 5.2 4.49 5.2 7.91 0 3.45-2.05 6.56-5.2 7.93-.23.1-.35.39-.29.65.68 2.5 1.69 4.95 3.01 7.29.17.29.51.31.77.21.99-.37 2.03-.56 3.06-.56 2.25 0 4.46.88 6.1 2.52 2.41 2.41 3.19 6.01 1.99 9.18-.13.31-.03.63.23.78 2.33 1.31 4.78 2.31 7.27 2.99.27.07.55-.06.67-.31 1.36-3.13 4.46-5.16 7.91-5.16 3.42 0 6.52 2.03 7.91 5.17.11.28.41.35.65.3 2.48-.68 4.93-1.68 7.27-3 .25-.14.34-.46.23-.76-1.21-3.18-.43-6.78 1.98-9.19 2.39-2.39 5.99-3.16 9.16-1.96.26.1.61.08.77-.21 1.32-2.34 2.33-4.79 3.02-7.29.05-.25-.08-.55-.3-.65zm-30.7 13.1c-11.6 0-21.04-9.42-21.04-21.01 0-11.6 9.44-21.04 21.04-21.04 11.58 0 21.01 9.44 21.01 21.04 0 11.59-9.42 21.01-21.01 21.01z" />
        <path
            d="m37.01 15.97c-11.6 0-21.04 9.44-21.04 21.04 0 11.59 9.44 21.01 21.04 21.01 11.58 0 21.01-9.42 21.01-21.01 0-11.6-9.42-21.04-21.01-21.04zm0 41.07c-11.06 0-20.06-8.98-20.06-20.03s8.99-20.06 20.06-20.06c11.04 0 20.03 9 20.03 20.06 0 11.04-8.98 20.03-20.03 20.03z" />
        <path
            d="m35.8 40.47c-.42.14-.91.21-1.44.21-1.12 0-2.01-.33-2.62-.97-.62-.64-.94-1.53-.94-2.63 0-.75.15-1.43.43-2 .28-.56.7-1 1.23-1.31.54-.31 1.2-.47 1.96-.47.47 0 .91.07 1.3.21.26.09.54-.05.63-.3.09-.26-.05-.54-.3-.63-.5-.17-1.04-.26-1.62-.26-.94 0-1.76.2-2.45.6-.7.4-1.25.98-1.62 1.72-.36.71-.54 1.54-.54 2.44 0 1.37.41 2.49 1.21 3.32.81.84 1.93 1.27 3.33 1.27.64 0 1.23-.09 1.76-.27.26-.09.4-.37.31-.62-.09-.26-.37-.4-.63-.31z" />
        <path
            d="m40.87 36.51c-.94 0-1.7-.76-1.7-1.7s.76-1.7 1.7-1.7c.68 0 1.3.41 1.56 1.04.11.25.39.37.64.26s.37-.39.26-.64c-.42-1-1.39-1.64-2.47-1.64-1.48 0-2.68 1.2-2.68 2.69 0 1.48 1.2 2.68 2.68 2.68.94 0 1.7.76 1.7 1.7s-.76 1.7-1.7 1.7c-.58 0-1.12-.29-1.43-.78-.15-.23-.45-.3-.68-.15s-.3.45-.15.68c.5.77 1.34 1.24 2.26 1.24 1.48 0 2.68-1.2 2.68-2.68.01-1.5-1.19-2.7-2.67-2.7z" />
        <path
            d="m25.4 36.51c-.94 0-1.7-.76-1.7-1.7s.76-1.7 1.7-1.7c.68 0 1.3.41 1.56 1.04.11.25.39.37.64.26s.37-.39.26-.64c-.42-1-1.39-1.64-2.47-1.64-1.48 0-2.68 1.2-2.68 2.69 0 1.48 1.2 2.68 2.68 2.68.94 0 1.7.76 1.7 1.7s-.76 1.7-1.7 1.7c-.58 0-1.12-.29-1.43-.78-.15-.23-.45-.3-.68-.15s-.3.45-.15.68c.5.77 1.34 1.24 2.26 1.24 1.48 0 2.68-1.2 2.68-2.68.01-1.5-1.19-2.7-2.67-2.7z" />
        <path
            d="m48.6 36.51c-.94 0-1.7-.76-1.7-1.7s.76-1.7 1.7-1.7c.68 0 1.3.41 1.56 1.04.11.25.39.37.64.26s.37-.39.26-.64c-.42-1-1.39-1.64-2.47-1.64-1.48 0-2.68 1.2-2.68 2.69 0 1.48 1.2 2.68 2.68 2.68.94 0 1.7.76 1.7 1.7s-.76 1.7-1.7 1.7c-.58 0-1.12-.29-1.43-.78-.15-.23-.45-.3-.68-.15s-.3.45-.15.68c.5.77 1.34 1.24 2.26 1.24 1.48 0 2.68-1.2 2.68-2.68.01-1.5-1.19-2.7-2.67-2.7z" />
    </g>
</svg>